<?xml version="1.0" encoding="UTF-8"?>
<svg viewBox="0 0 793.7 1122.5" xmlns="http://www.w3.org/2000/svg" xmlns:xlink="http://www.w3.org/1999/xlink">
 <g fill-rule="evenodd" stroke="#000">
  <path d="m364.45 724.35s18.566 151.12 36.979 257.38c6.6602 38.436 9.304 51.48 32.875 47.852 15.009-2.3106 19.452-12.735 11.848-51.942-12.269-63.263-46.775-254.81-46.775-254.81" fill="#0ff" stroke-width="8"/>
  <path d="m567.42 513.79a215.26 212.98 0 1 1 -430.51 0 215.26 212.98 0 1 1 430.51 0z" fill="#f0f" stroke-width="10"/>
  <path d="m575.55 539.07c-48.909 221.49-257.56 189.69-216.45 187.4 113.74-6.3424 194.52-91.435 187.48-206.74-6.3101-103.25-83.443-191.54-188.25-184.46-92.761 6.271-168.47 77-161.33 171.31 6.2226 82.27 78.292 150.04 162.11 142.85 71.78-6.1611 130.86-69.532 123.59-142.85-6.0807-61.291-60.778-111.71-123.59-104.33-50.802 5.9705-92.605 52.033-85.068 104.33 5.8106 40.315 43.31 73.588 85.068 65.808 29.827-5.5571 54.756-34.649 46.549-65.808-5.0895-19.322-26.241-36.413-46.549-27.289-8.8259 3.9654-19.535 19.754-7.5927 27.471 7.2375 6.6356 1.5642 15.162-4.5111 17.974-16.464 7.6201-32.491-8.6844-35.18-23.917-4.8104-27.248 19.676-49.562 45.304-51.504 37.609-2.8515 66.952 30.75 67.829 66.69 1.1691 47.902-41.844 84.467-88.076 84.154-58.179-0.3949-102.04-52.946-100.48-109.46 1.8981-68.45 64.051-119.66 130.85-116.8 78.72 3.3661 137.3 75.158 133.13 152.24-4.8119 88.989-86.268 154.95-173.62 149.45-99.258-6.2429-172.61-97.378-165.78-195.01 7.6634-109.53 108.49-190.28 216.4-182.1 119.8 9.0763 207.71 122.42 198.18 240.6z"/>
  <path d="m569.42 513.79a215.26 212.98 0 1 1 -430.51 0 215.26 212.98 0 1 1 430.51 0z" fill="none" stroke-width="10"/>
 </g>
 <use x="106.166" y="-2.20731" width="744.09448" height="1052.3622" xlink:href="#path3164"/>
</svg>
