<?xml version="1.0" encoding="UTF-8"?>
<svg width="50.126mm" height="19.194mm" version="1.1" viewBox="0 0 177.61204 68.010487" xmlns="http://www.w3.org/2000/svg">
 <g transform="translate(11.002 9.2841)">
  <rect x="6.7142" y="8.4325" width="142.18" height="32.577" opacity=".999"/>
  <g transform="matrix(.18616 0 0 .18489 -266 -452.09)" fill="#fff">
   <g transform="matrix(2.7201 0 0 -2.7388 1646 2614)">
    <path d="m0 0h6.23v14.988h4.204l0.545 5.297h-4.749v3.113c0 1.17 0.776 1.444 1.321 1.444h3.351v5.138l-4.615 0.02c-5.123 0-6.287-3.834-6.287-6.289v-3.426h-2.963v-5.297h2.963v-14.988z" fill="#fff"/>
   </g>
   <g transform="matrix(2.7201 0 0 -2.7388 2163 2591.9)">
    <path d="m0 0c-0.652-0.922-1.617-1.654-2.867-2.174-1.237-0.514-2.719-0.775-4.406-0.775-2.028 0-3.727 0.357-5.053 1.06-0.947 0.512-1.731 1.203-2.324 2.061-0.598 0.863-0.903 1.721-0.903 2.549 0 0.517 0.199 0.965 0.59 1.332 0.385 0.363 0.881 0.547 1.473 0.547 0.484 0 0.902-0.145 1.242-0.43 0.324-0.277 0.603-0.684 0.826-1.211 0.252-0.574 0.524-1.057 0.811-1.436 0.277-0.367 0.675-0.673 1.183-0.914 0.512-0.242 1.201-0.367 2.049-0.367 1.166 0 2.123 0.25 2.842 0.742 0.703 0.479 1.043 1.055 1.043 1.76 0 0.557-0.176 0.994-0.543 1.338-0.385 0.359-0.893 0.637-1.506 0.83-0.641 0.199-1.512 0.416-2.588 0.643-1.465 0.312-2.709 0.685-3.697 1.103-1.012 0.432-1.828 1.029-2.424 1.776-0.605 0.759-0.914 1.709-0.914 2.828 0 1.064 0.322 2.027 0.959 2.853 0.629 0.823 1.553 1.465 2.738 1.901 1.172 0.433 2.565 0.654 4.141 0.654 1.26 0 2.365-0.149 3.291-0.434 0.93-0.289 1.713-0.681 2.33-1.162 0.621-0.484 1.084-1.002 1.371-1.541 0.293-0.545 0.441-1.086 0.441-1.609 0-0.504-0.195-0.963-0.578-1.363-0.386-0.401-0.875-0.604-1.449-0.604-0.523 0-0.932 0.127-1.215 0.377-0.263 0.234-0.539 0.6-0.842 1.123-0.353 0.666-0.779 1.193-1.265 1.566-0.477 0.362-1.268 0.543-2.358 0.543-1.009 0-1.834-0.203-2.443-0.603-0.588-0.387-0.875-0.828-0.875-1.352 0-0.322 0.092-0.59 0.283-0.822 0.199-0.246 0.483-0.459 0.84-0.639 0.371-0.185 0.754-0.334 1.135-0.439 0.392-0.109 1.051-0.272 1.953-0.479 1.141-0.246 2.191-0.519 3.117-0.818 0.942-0.301 1.752-0.67 2.414-1.102 0.678-0.439 1.211-1.003 1.592-1.679s0.574-1.514 0.574-2.485c0-1.162-0.334-2.222-0.988-3.148m6.871 6.744c0 7.789-6.316 14.106-14.107 14.106-0.823 0-1.627-0.071-2.412-0.205-1.262 0.794-2.752 1.255-4.352 1.255-4.52 0-8.182-3.664-8.182-8.183 0-1.51 0.411-2.922 1.123-4.137-0.187-0.916-0.285-1.865-0.285-2.836 0-7.793 6.317-14.109 14.108-14.109 0.882 0 1.746 0.082 2.582 0.236 1.154-0.619 2.47-0.971 3.869-0.971 4.519 0 8.181 3.663 8.181 8.182 0 1.305-0.306 2.537-0.849 3.633 0.213 0.978 0.324 1.988 0.324 3.029" fill="#fff"/>
   </g>
   <g transform="translate(-87.285 21.282)">
    <path d="m2069.2 2592.7h16.919v-54.786h-16.919v54.786z"/>
    <g transform="matrix(2.7201 0 0 -2.7388 2077.7 2530.4)">
     <path d="m0 0c1.987 0 3.603 1.617 3.603 3.607 0 1.989-1.616 3.604-3.603 3.604-1.993 0-3.604-1.615-3.604-3.604 0-1.99 1.611-3.607 3.604-3.607" fill="#fff"/>
    </g>
    <g transform="matrix(2.7201 0 0 -2.7388 2149.5 2562.6)">
     <path d="m0 0c0 5.387-1.163 9.529-7.454 9.529-3.024 0-5.054-1.658-5.884-3.23h-0.085v2.732h-5.964v-20.004h6.216v9.897c0 2.609 0.493 5.137 3.729 5.137 3.185 0 3.231-2.985 3.231-5.305v-9.729h6.211v10.973z" fill="#fff"/>
    </g>
   </g>
   <g transform="translate(52.09 21.284)">
    <g transform="matrix(2.7201 0 0 -2.7388 1747.9 2565.8)">
     <path d="m0 0h1.288c0.346 0 0.625 0.279 0.625 0.625v4.523h4.524c0.344 0 0.625 0.282 0.625 0.627v1.287c0 0.346-0.281 0.627-0.625 0.627h-4.524v4.524c0 0.344-0.279 0.625-0.625 0.625h-1.288c-0.346 0-0.627-0.281-0.627-0.625v-4.524h-4.523c-0.345 0-0.625-0.281-0.625-0.627v-1.287c0-0.345 0.28-0.627 0.625-0.627h4.523v-4.523c0-0.346 0.281-0.625 0.627-0.625" fill="#fff"/>
    </g>
    <g transform="matrix(2.7201 0 0 -2.7388 1710.6 2562.1)">
     <path d="m0 0 0.071-2e-3c0.59-6e-3 1.165-0.094 1.708-0.26 0.185-0.127 0.366-0.25 0.538-0.367 1.255-0.855 2.083-1.42 2.315-2.326 0.054-0.227 0.081-0.455 0.081-0.676 0-2.33-1.738-3.512-5.166-3.512-2.6 0-4.634 1.594-4.634 3.629 0 1.871 2.378 3.514 5.087 3.514m-3.381 10.918c-0.173 1.316 0.104 2.498 0.76 3.246 0.423 0.484 0.977 0.738 1.6 0.738l0.071-2e-3c1.759-0.05 3.44-2.009 3.751-4.367 0.174-1.32-0.119-2.56-0.783-3.318-0.424-0.485-0.971-0.738-1.62-0.738h-0.029c-1.723 0.05-3.441 2.087-3.75 4.441m-0.709-20.147c1.145-0.291 2.375-0.439 3.653-0.439 1.147 0 2.242 0.15 3.253 0.443 3.155 0.914 5.194 3.237 5.194 5.918 0 2.573-0.826 4.112-3.046 5.682-0.951 0.674-1.817 1.66-1.831 1.965 0 0.553 0.049 0.816 1.289 1.783 1.602 1.254 2.486 2.904 2.486 4.648 0 1.581-0.483 2.985-1.306 3.971h0.637c0.133 0 0.262 0.041 0.368 0.117l1.78 1.289c0.22 0.159 0.313 0.442 0.228 0.7-0.084 0.257-0.324 0.433-0.595 0.433h-7.958c-0.871 0-1.755-0.152-2.624-0.451-2.9-1-4.927-3.471-4.927-6.01 0-3.591 2.784-6.316 6.506-6.402-0.073-0.285-0.109-0.566-0.109-0.842 0-0.553 0.141-1.078 0.429-1.584-0.034-2e-3 -0.066-2e-3 -0.103-2e-3 -3.547 0-6.75-1.74-7.965-4.332-0.318-0.672-0.478-1.353-0.478-2.025 0-0.654 0.168-1.283 0.496-1.875 0.766-1.367 2.406-2.428 4.623-2.987" fill="#fff"/>
    </g>
   </g>
   <g transform="translate(-17.601 21.284)">
    <g transform="matrix(2.7201 0 0 -2.7388 1876.7 2556)">
     <path d="M 0,0 8.824,-5.76 15,-0.609 6.102,4.883 0,0 Z" fill="#fff"/>
    </g>
    <g transform="matrix(2.7201 0 0 -2.7388 1900.7 2513.5)">
     <path d="m 0,0 -8.824,-5.756 6.101,-4.885 8.899,5.493 L 0,0 Z" fill="#fff"/>
    </g>
    <g transform="matrix(2.7201 0 0 -2.7388 1934.3 2513.5)">
     <path d="M 0,0 -6.174,-5.148 2.725,-10.641 8.826,-5.756 0,0 Z" fill="#fff"/>
    </g>
    <g transform="matrix(2.7201 0 0 -2.7388 1934.3 2571.8)">
     <path d="M 0,0 8.826,5.76 2.725,10.643 -6.174,5.15 0,0 Z" fill="#fff"/>
    </g>
    <g transform="matrix(2.7201 0 0 -2.7388 1941.6 2575.3)">
     <path d="m0 0v1.941l-2.65-1.73-6.192 5.137-6.195-5.137-2.65 1.73v-1.941l8.845-5.299 8.842 5.299z" fill="#fff"/>
    </g>
   </g>
   <g transform="matrix(2.7201 0 0 -2.7388 1574 2540.8)">
    <path d="m0 0c-1.189-0.705-2.508-1.219-3.91-1.494-1.121 1.195-2.721 1.943-4.492 1.943-3.399 0-6.155-2.756-6.155-6.154 0-0.482 0.055-0.951 0.159-1.402-5.116 0.255-9.651 2.707-12.686 6.429-0.53-0.908-0.834-1.965-0.834-3.093 0-2.135 1.087-4.02 2.738-5.124-1.008 0.034-1.958 0.309-2.788 0.77v-0.076c0-2.983 2.121-5.471 4.938-6.037-0.517-0.141-1.061-0.215-1.622-0.215-0.397 0-0.783 0.039-1.159 0.109 0.785-2.443 3.057-4.224 5.75-4.273-2.107-1.651-4.76-2.635-7.644-2.635-0.497 0-0.987 0.029-1.468 0.086 2.724-1.746 5.959-2.766 9.435-2.766 11.322 0 17.511 9.379 17.511 17.512 0 0.268-3e-3 0.533-0.015 0.797 1.201 0.867 2.246 1.951 3.07 3.187-1.103-0.49-2.289-0.82-3.535-0.968 1.271 0.759 2.246 1.967 2.707 3.404" fill="#fff"/>
   </g>
  </g>
 </g>
</svg>
