<?xml version="1.0" encoding="utf-8"?>
<!-- Generator: Adobe Illustrator 18.1.1, SVG Export Plug-In . SVG Version: 6.00 Build 0)  -->
<!DOCTYPE svg PUBLIC "-//W3C//DTD SVG 1.1//EN" "http://www.w3.org/Graphics/SVG/1.1/DTD/svg11.dtd">
<svg version="1.1" id="Layer_1" class="logo" xmlns="http://www.w3.org/2000/svg" xmlns:xlink="http://www.w3.org/1999/xlink" x="0px" y="0px"
	 width="255.3px" height="285.1px" viewBox="-76.8 173.3 255.3 285.1" enable-background="new -76.8 173.3 255.3 285.1"
	 xml:space="preserve">
<g>
	<polygon points="161.9,190.5 167.6,190.5 167.6,191.1 165.1,191.1 165.1,197.7 164.4,197.7 164.4,191.1 161.9,191.1 	"/>
	<polygon points="167.9,197.7 168.5,197.7 168.5,191.5 168.6,191.5 171,197.7 171.7,197.7 174.1,191.5 174.1,191.5 174.1,197.7
		174.8,197.7 174.8,190.5 173.8,190.5 171.3,196.8 168.9,190.5 167.9,190.5 	"/>
	<path d="M-49.2,189.5c-3.6,0-6.6,0.8-9,2.3c-2,1.2-3.8,3-5.4,5.3v-23.8h-13.1v67.4h12.9v-6.4c1.7,2.5,3.4,4.2,4.8,5.2
		c2.5,1.7,5.8,2.5,9.9,2.5c6.6,0,11.7-2.6,15.3-7.7c3.7-5.1,5.5-11.6,5.5-19.3c0-7.5-1.9-13.6-5.6-18.4
		C-37.5,191.9-42.6,189.5-49.2,189.5 M-44.8,227c-1.9,2.7-4.4,4.1-7.8,4.1c-3.9,0-6.7-1.4-8.6-4.2c-1.8-2.8-2.8-6.4-2.8-10.7
		c0-3.6,0.5-6.6,1.4-8.9c1.8-4.3,5-6.5,9.7-6.5c4.6,0,7.8,2.2,9.6,6.6c0.9,2.3,1.4,5.3,1.4,8.8C-42,220.7-42.9,224.3-44.8,227"/>
	<rect x="-25.4" y="173.3" width="13.1" height="67.4"/>
	<path d="M63.8,200.4c3.1,0,5.4,1,6.9,3c1,1.5,1.7,3.1,1.9,5H86c-0.7-7-3.1-11.9-7.1-14.7c-4-2.8-9.2-4.2-15.5-4.2
		c-7.4,0-13.2,2.4-17.4,7.1c-4.2,4.7-6.3,11.4-6.3,20.1c0,7.7,1.9,13.9,5.7,18.6c3.8,4.7,9.7,7.1,17.7,7.1s14.1-2.8,18.2-8.5
		c2.6-3.5,4-7.2,4.3-11.1H72.3c-0.3,2.6-1.1,4.7-2.4,6.3c-1.3,1.6-3.5,2.4-6.6,2.4c-4.3,0-7.3-2-8.9-6.1c-0.9-2.3-1.3-5.3-1.3-9
		c0-3.9,0.4-7.1,1.3-9.4C56.3,202.5,59.3,200.4,63.8,200.4"/>
	<polygon points="135.5,190.9 119.4,190.9 103.3,209.7 103.3,173.3 90.2,173.3 90.2,240.7 103.3,240.7 103.3,225 108.6,219.3
		120.5,240.7 136.2,240.7 117.9,209.6 	"/>
	<path d="M-52.7,255.7c3.1,0,5.4,1,6.9,3c1,1.5,1.7,3.1,1.9,5h13.4c-0.7-7-3.1-11.9-7.1-14.7c-4-2.8-9.2-4.2-15.5-4.2
		c-7.4,0-13.2,2.3-17.4,7.1c-4.2,4.7-6.3,11.4-6.3,20.1c0,7.7,1.9,13.9,5.7,18.6c3.8,4.7,9.7,7.1,17.7,7.1s14.1-2.8,18.2-8.5
		c2.6-3.5,4-7.2,4.3-11.1h-13.2c-0.3,2.6-1.1,4.7-2.4,6.3c-1.3,1.6-3.5,2.4-6.6,2.4c-4.3,0-7.3-2-8.9-6.1c-0.9-2.3-1.3-5.3-1.3-9
		c0-3.9,0.4-7.1,1.3-9.4C-60.2,257.9-57.2,255.7-52.7,255.7"/>
	<path d="M-0.3,244.8c-3.9,0-7.1,1-9.5,3.1c-1.5,1.2-3.3,3.5-5.3,6.9v-8.7h-12.3V296h13.1v-23.9c0-4,0.5-7,1.5-8.9
		c1.8-3.4,5.3-5.1,10.5-5.1c0.4,0,0.9,0,1.6,0c0.6,0,1.4,0.1,2.2,0.1V245c-0.6-0.1-1-0.1-1.1-0.1C0.2,244.8,0,244.8-0.3,244.8"/>
	<path d="M27.4,244.5c-8.6,0-15,2.6-19.2,7.9c-4.2,5.3-6.3,11.5-6.3,18.7c0,7.3,2.1,13.6,6.3,18.8c4.2,5.2,10.6,7.8,19.2,7.8
		s15-2.6,19.2-7.8s6.3-11.4,6.3-18.8c0-7.2-2.1-13.4-6.3-18.7C42.3,247.1,35.9,244.5,27.4,244.5 M36.2,282.7c-2,2.7-5,4.1-8.8,4.1
		s-6.8-1.4-8.8-4.1c-2.1-2.7-3.1-6.6-3.1-11.6s1-8.9,3.1-11.6c2.1-2.7,5-4.1,8.8-4.1s6.7,1.4,8.8,4.1c2,2.7,3.1,6.6,3.1,11.6
		C39.2,276.1,38.2,279.9,36.2,282.7"/>
	<polygon points="122.1,246.1 111.4,281.6 101,246.1 96.5,246.1 89.2,246.1 84.9,246.1 74.3,281.6 63.9,246.1 49.2,246.1 67.1,296
		80.9,296 92.8,259.2 104.3,296 118,296 136.1,246.1 	"/>
	<path d="M174.6,271.6c-2.6-2.5-6.5-4.3-11.7-5.5c-7.8-1.7-12.4-2.9-13.7-3.6c-1.3-0.7-1.9-1.8-1.9-3.3c0-1.2,0.6-2.2,1.8-3.1
		c1.2-0.9,3.2-1.3,6.1-1.3c3.5,0,5.9,0.9,7.4,2.7c0.8,1,1.2,2.3,1.4,4h13.1c-0.6-6.1-2.8-10.5-6.8-13c-3.9-2.5-9-3.7-15.3-3.7
		c-6.6,0-11.7,1.6-15.3,4.9c-3.6,3.3-5.4,7.3-5.4,11.8c0,3.9,1.2,6.9,3.5,9c2.3,2.1,6.3,3.8,12,5.2c7.9,1.8,12.5,3.1,13.7,3.9
		c1.2,0.8,1.9,1.9,1.9,3.4s-0.8,2.7-2.3,3.4c-1.5,0.8-3.6,1.2-6.2,1.2c-4.4,0-7.5-0.9-9.1-2.6c-0.9-1-1.5-2.6-1.8-5h-13.1
		c0,5.1,1.9,9.3,5.6,12.6c3.7,3.3,9.5,5,17.4,5c7.7,0,13.4-1.6,17.1-4.7s5.5-7.1,5.5-12C178.4,277.2,177.2,274.1,174.6,271.6"/>
	<path d="M29.3,192.7c-4.2-2.1-9.1-3.2-14.5-3.2c-8.4,0-14.3,2.2-17.7,6.6c-2.2,2.8-3.4,6.4-3.7,10.7H5.9c0.3-1.9,0.9-3.5,1.8-4.6
		c1.3-1.5,3.5-2.3,6.5-2.3c2.7,0,4.8,0.4,6.2,1.2c1.4,0.8,2.1,2.2,2.1,4.3c0,1.7-0.9,2.9-2.8,3.7c-1,0.5-2.8,0.8-5.2,1.1l-4.4,0.6
		c-5,0.6-8.8,1.7-11.4,3.2c-4.7,2.8-7.1,7.2-7.1,13.4c0,4.8,1.5,8.4,4.4,11c2.9,2.6,6.7,3.9,11.2,3.9c3.5,0,6.7-0.8,9.5-2.4
		c2.1-1.2,3.9-2.7,6.1-4.9v5.9h12.6l0.1-35.9C35.6,198.9,33.5,194.8,29.3,192.7 M22.6,221.2c-0.1,4.4-1.3,7.5-3.7,9.1
		c-2.4,1.7-4.9,2.5-7.7,2.5c-1.8,0-3.3-0.5-4.5-1.5s-1.8-2.6-1.8-4.9c0-2.5,1-4.4,3-5.6c1.2-0.7,3.1-1.3,5.9-1.8l2.9-0.6
		c1.5-0.3,2.6-0.6,3.4-0.9s1.7-0.7,2.5-1.3C22.6,216.2,22.6,221.2,22.6,221.2z"/>
	<path d="M5.7,383.7c-8.4-8.4-21.1-21.1-21.1-21.1l-15.9,15.8l36.9,36.9l36.9-36.9l-15.8-15.8C26.7,362.6,14,375.3,5.7,383.7"/>
	<path d="M91.9,383.7c-8.4-8.4-21.1-21.1-21.1-21.1L55,378.5l36.9,36.9l36.9-36.9l-15.9-15.8C112.9,362.6,100.2,375.3,91.9,383.7"/>
	<path d="M48.8,340.8c-8.4-8.4-21.1-21.1-21.1-21.1l-15.8,15.9l36.9,36.9l36.9-36.9l-15.9-15.9C69.8,319.8,57.1,332.5,48.8,340.8"/>
	<path d="M48.8,426.8c-8.4-8.4-21.1-21.1-21.1-21.1l-15.8,15.8l36.9,36.9l36.9-36.9l-15.9-15.8C69.8,405.7,57.1,418.4,48.8,426.8"/>
	<path d="M-37,340.9c-8.4-8.4-21.1-21.1-21.1-21.1L-74,335.7l37,36.9l37-36.9l-15.9-15.8C-15.9,319.8-28.6,332.5-37,340.9"/>
	<path d="M134.6,340.9c-8.4-8.4-21.1-21.1-21.1-21.1l-15.8,15.8l36.9,36.9l36.9-36.9l-15.9-15.8C155.7,319.8,143,332.5,134.6,340.9"
		/>
</g>
</svg>
